# xmcd
#
# Track frame offsets:
# 150
# 17867
# 32900
# 50210
# 66945
# 83375
# 100625
# 114610
# 133165
# 150267
# 165285
# 181975
# 199595
# 215589
#
# Disc length: 3064 seconds
#
#
# Revision: 2
# Processed by: cddbd v1.5.2PL0 Copyright (c) Steve Scherf et al.
# Submitted via: FreeRIP 2.951 
#
DISCID=b50bf60e
DTITLE=Mato Grosso and Mathias - Um Século Sem Ti - Matogrosso and Mathias Um Século Sem Ti
DYEAR=2007
DGENRE=sertanejo
TTITLE0=Um Século Sem Ti
TTITLE1=Chorei Por Ela
TTITLE2=Só Quem Ama Entende
TTITLE3=Eu Me Perdi
TTITLE4=Aos Tancos e Barrancos
TTITLE5=Vazio da Solidão
TTITLE6=Coisa Mandada
TTITLE7=Seu Corpo Em Meu Corpo
TTITLE8=Vem Ficar Comigo
TTITLE9=Mulheres do Brasil
TTITLE10=Linha de Pipa
TTITLE11=Caiu, Quebrou
TTITLE12=O Vôo do Condor
TTITLE13=Depois das Seis
EXTD=
EXTT0=
EXTT1=
EXTT2=
EXTT3=
EXTT4=
EXTT5=
EXTT6=
EXTT7=
EXTT8=
EXTT9=
EXTT10=
EXTT11=
EXTT12=
EXTT13=
PLAYORDER=
